<svg width="16" height="16" viewBox="0 0 16 16" fill="none" xmlns="http://www.w3.org/2000/svg">
<path d="M1.59941 12.9534C3.72782 11.3132 5.852 9.67293 7.99308 8.02385C8.05642 8.06806 8.11977 8.10785 8.17889 8.15649C10.1975 9.71272 12.2161 11.2734 14.2389 12.8296C14.353 12.9136 14.3994 13.002 14.3994 13.1523C14.391 14.1029 14.3952 15.049 14.3952 15.9951C14.3825 15.9951 14.3656 15.9951 14.353 15.9951C14.3107 15.9509 14.2685 15.9023 14.222 15.8625C12.1992 14.2974 10.1722 12.7368 8.14933 11.1717C8.09865 11.1319 8.04798 11.1009 7.9973 11.0656C7.96352 11.0877 7.93818 11.1054 7.91706 11.1186C5.85623 12.7102 3.79961 14.2974 1.73877 15.889C1.70077 15.9155 1.67543 15.9597 1.64164 15.9951C1.62897 15.9376 1.59941 15.8757 1.59941 15.8183C1.59941 14.8633 1.59941 13.9084 1.59941 12.9534Z" fill="white"/>
<path d="M1.59941 8.93923C3.72782 7.29899 5.85623 5.65876 7.9973 4.00968C8.06909 4.06274 8.13666 4.10695 8.20001 4.16C10.2102 5.71181 12.2203 7.26363 14.2305 8.81102C14.3487 8.90386 14.3994 8.9967 14.3994 9.15144C14.391 10.0755 14.3952 11.0039 14.3952 11.981C12.2499 10.323 10.1299 8.68722 7.9973 7.04257C5.86467 8.69165 3.73204 10.3363 1.59941 11.981C1.59941 10.9685 1.59941 9.95608 1.59941 8.93923Z" fill="white"/>
<path d="M1.59941 4.92949C3.72782 3.28926 5.85623 1.64903 7.9973 -4.53824e-05C8.06909 0.053008 8.13666 0.0972189 8.20001 0.150272C10.2102 1.69766 12.2203 3.24947 14.2305 4.79686C14.3487 4.8897 14.3994 4.98255 14.3994 5.13729C14.391 6.0613 14.3952 6.98973 14.3952 7.9668C12.2499 6.30888 10.1299 4.67307 7.9973 3.02842C5.86467 4.67749 3.73204 6.32214 1.59941 7.9668C1.59941 6.95878 1.59941 5.94193 1.59941 4.92949Z" fill="white"/>
</svg>
