<svg width="16" height="16" viewBox="0 0 16 16" fill="none" xmlns="http://www.w3.org/2000/svg">
<path d="M14.3154 0.533203C14.328 0.533203 14.3449 0.533203 14.3575 0.533203C14.3575 3.89114 14.3575 7.24908 14.3617 10.607C14.3617 10.7596 14.3154 10.8504 14.1891 10.9453C12.1891 12.385 10.1933 13.8288 8.1975 15.2685C8.12592 15.3222 8.05013 15.3717 7.97856 15.4212C5.83961 13.8824 3.72171 12.3479 1.59961 10.8174C1.59961 7.45121 1.59961 4.08503 1.59961 0.718838C1.59961 0.65696 1.62908 0.595082 1.64171 0.533203C1.68382 0.574455 1.72593 0.619833 1.77224 0.65696C3.78908 2.11729 5.81013 3.57762 7.82698 5.03795C7.8775 5.07508 7.92803 5.10396 7.97856 5.13696C8.01224 5.11633 8.0375 5.09983 8.05856 5.08333C10.1133 3.59825 12.1638 2.11729 14.2186 0.632209C14.2565 0.603332 14.2817 0.566205 14.3154 0.533203Z" fill="white"/>
</svg>
