<svg width="16" height="16" viewBox="0 0 16 16" fill="none" xmlns="http://www.w3.org/2000/svg">
<path d="M1.59961 10.899C1.59961 7.41288 1.59961 3.92261 1.59961 0.436523C5.86487 0.436523 10.1301 0.436523 14.3954 0.436523C14.3954 3.85155 14.3954 7.27076 14.3996 10.6858C14.3996 10.8446 14.3532 10.9324 14.2222 11.0285C12.2121 12.4915 10.2019 13.9587 8.19598 15.4217C8.12841 15.4718 8.06084 15.5178 7.99327 15.5638C5.8522 14.0047 3.72802 12.4497 1.59961 10.899ZM12.2881 2.58084C9.4291 2.58084 6.59123 2.58084 3.75335 2.58084C3.74913 2.631 3.74491 2.66444 3.74491 2.69788C3.74491 4.9258 3.74491 7.1579 3.74068 9.38582C3.74068 9.51957 3.80825 9.58227 3.90116 9.64915C5.06672 10.4977 6.22805 11.3462 7.3936 12.1906C7.60053 12.341 7.80746 12.4915 8.01439 12.6378C8.05662 12.6127 8.07773 12.6002 8.10307 12.5835C9.45866 11.597 10.8143 10.6064 12.1741 9.62407C12.2839 9.54465 12.2965 9.45687 12.2965 9.33984C12.2965 7.15372 12.2965 4.96342 12.2965 2.7773C12.2881 2.71878 12.2881 2.65608 12.2881 2.58084Z" fill="white"/>
<path d="M8.0186 11.0662C7.00929 10.3305 6.01266 9.60735 5.02447 8.88004C4.97802 8.8466 4.93156 8.77136 4.93156 8.71284C4.92734 7.08684 4.93156 5.46083 4.93156 3.83483C4.93156 3.82229 4.94001 3.80975 4.94846 3.78467C6.98818 3.78467 9.03635 3.78467 11.0972 3.78467C11.1014 3.83901 11.1099 3.90171 11.1099 3.96023C11.1099 5.52353 11.1099 7.08684 11.1056 8.65014C11.1056 8.72956 11.0718 8.83406 11.0127 8.88004C10.0245 9.60735 9.0279 10.3305 8.0186 11.0662Z" fill="white"/>
</svg>
