<svg width="16" height="16" viewBox="0 0 16 16" fill="none" xmlns="http://www.w3.org/2000/svg">
<path d="M1.59961 8.02637C3.72802 9.67148 5.85642 11.3122 7.9975 12.9661C10.1175 11.3299 12.2374 9.69359 14.3869 8.03521C14.3912 8.11039 14.3996 8.15019 14.3996 8.18999C14.3996 9.09215 14.4038 9.99873 14.3954 10.9009C14.3954 10.9849 14.3447 11.1043 14.2814 11.153C12.2079 12.7627 10.1301 14.3636 8.0524 15.9689C8.03973 15.9777 8.02706 15.9821 7.99327 15.9998C5.86487 14.3591 3.73224 12.714 1.59961 11.0689C1.59961 10.0562 1.59961 9.03908 1.59961 8.02637Z" fill="white"/>
<path d="M8.03973 0C8.0904 0.0486457 8.13263 0.101714 8.18753 0.145937C10.2019 1.7026 12.2163 3.25926 14.2307 4.8115C14.3489 4.90437 14.3996 4.99724 14.3954 5.15644C14.3869 6.08071 14.3912 7.0094 14.3912 7.98231C12.2501 6.32394 10.1301 4.68767 7.9975 3.04257C5.86487 4.6921 3.73224 6.3372 1.59961 7.98231C1.59961 6.9696 1.59961 5.95246 1.59961 4.93975C3.68156 3.33444 5.76351 1.72913 7.84547 0.119403C7.8877 0.0884467 7.91726 0.039801 7.95527 0C7.98483 0 8.01017 0 8.03973 0Z" fill="white"/>
<path d="M8.00178 4.3252C9.55163 5.54576 11.0846 6.75748 12.6471 7.98689C11.093 9.21187 9.55585 10.4236 8.00178 11.6486C6.46037 10.4324 4.92319 9.22072 3.35645 7.98689C4.91052 6.76632 6.4477 5.5546 8.00178 4.3252Z" fill="white"/>
</svg>
