<svg width="16" height="16" viewBox="0 0 16 16" fill="none" xmlns="http://www.w3.org/2000/svg">
<path d="M14.3996 3.04172C12.2712 4.68196 10.147 6.32219 8.00594 7.97126C7.9426 7.92705 7.87925 7.88726 7.82013 7.83863C5.80152 6.2824 3.78292 4.72175 1.76008 3.16552C1.64606 3.08151 1.59961 2.99309 1.59961 2.84277C1.60806 1.89224 1.60383 0.946118 1.60383 0C1.6165 0 1.63339 0 1.64606 0C1.68829 0.0442111 1.73052 0.0928433 1.77698 0.132633C3.79981 1.69771 5.82686 3.25836 7.84969 4.82343C7.90037 4.86322 7.95104 4.89417 8.00172 4.92954C8.0355 4.90743 8.06084 4.88975 8.08196 4.87649C10.1428 3.28489 12.1994 1.69771 14.2602 0.106107C14.2983 0.07958 14.3236 0.0353689 14.3574 0C14.37 0.0574744 14.3996 0.11937 14.3996 0.176844C14.3996 1.1318 14.3996 2.08676 14.3996 3.04172Z" fill="white"/>
<path d="M14.3996 7.05589C12.2712 8.69612 10.1428 10.3364 8.00172 11.9854C7.92993 11.9324 7.86236 11.8882 7.79902 11.8351C5.78885 10.2833 3.77869 8.73149 1.76853 7.1841C1.65029 7.09126 1.59961 6.99841 1.59961 6.84367C1.60806 5.91966 1.60383 4.99123 1.60383 4.01416C3.74913 5.67208 5.86909 7.30789 8.00172 8.95255C10.1343 7.30347 12.267 5.65882 14.3996 4.01416C14.3996 5.0266 14.3996 6.03903 14.3996 7.05589Z" fill="white"/>
<path d="M14.3996 11.0661C12.2712 12.7063 10.1428 14.3466 8.00172 15.9957C7.92993 15.9426 7.86236 15.8984 7.79902 15.8453C5.78885 14.2979 3.77869 12.7461 1.76853 11.1987C1.65029 11.1059 1.59961 11.0131 1.59961 10.8583C1.60806 9.93431 1.60383 9.00587 1.60383 8.02881C3.74913 9.68673 5.86909 11.3225 8.00172 12.9672C10.1343 11.3181 12.267 9.67346 14.3996 8.02881C14.3996 9.03682 14.3996 10.0537 14.3996 11.0661Z" fill="white"/>
</svg>
